<svg xmlns="http://www.w3.org/2000/svg" width="40.667" height="37.265" viewBox="0 0 40.667 37.265">
  <path id="Path_7" data-name="Path 7" d="M830.792,747.706a13.821,13.821,0,0,0-9.4-4.32c.237-.866.5-1.974.717-2.785.055-.191.106-.38.153-.563l0-.012h0a5.713,5.713,0,0,0,.275-2.376c-.6-.15-2.832.554-4.817,1.522a.843.843,0,0,1-1.18-.529c-.7-2.468-1.84-4.482-2.32-4.5-.555.111-1.684,2.5-2.315,4.909a.843.843,0,0,1-1.4.393,7.947,7.947,0,0,0-4.664-1.886H805.8a20.307,20.307,0,0,0,.659,3.384h0c.021.088.05.2.085.322.043.16.086.32.131.479h.012c.151.484.348,1.077.544,1.65-3.857.127-7.1,1.83-9.89,5.14a13.482,13.482,0,0,0,.627,18.623c3.614,3.1,7.823,4.252,9.626,4.252a14.114,14.114,0,0,0,3.132-.576,15.207,15.207,0,0,1,3.551-.628,15.633,15.633,0,0,1,3.159.485,24.22,24.22,0,0,0,5.329.719c3.366,0,11.518-5.448,11.8-14.038A13,13,0,0,0,830.792,747.706Z" transform="translate(-793.91 -734.14)" fill="#fff"/>
</svg>
